<?xml version="1.0" standalone="no"?>
<!DOCTYPE svg PUBLIC "-//W3C//DTD SVG 1.1//EN" "http://www.w3.org/Graphics/SVG/1.1/DTD/svg11.dtd">
<svg width="100%" height="100%" viewBox="0 0 60 60" version="1.1" xmlns="http://www.w3.org/2000/svg" xmlns:xlink="http://www.w3.org/1999/xlink" xml:space="preserve" style="fill-rule:evenodd;clip-rule:evenodd;stroke-linejoin:round;stroke-miterlimit:1.41421;">
    <g transform="matrix(2.29167,0,0,2.29167,2.5,2.5)">
        <g transform="matrix(1.04348,0,0,1.09091,-1.04348,-2.18182)">
            <ellipse cx="12.5" cy="13" rx="11.5" ry="11" style="fill:rgb(63,81,181);"/>
        </g>
        <g transform="matrix(0.763636,0,0,0.763636,2.83636,2.83636)">
            <path d="M20,6L12,6L10,4L4,4C2.89,4 2.01,4.89 2.01,6L2,18C2,19.11 2.89,20 4,20L20,20C21.11,20 22,19.11 22,18L22,8C22,6.89 21.11,6 20,6ZM19,14L16,14L16,17L14,17L14,14L11,14L11,12L14,12L14,9L16,9L16,12L19,12L19,14Z" style="fill:white;fill-rule:nonzero;"/>
        </g>
    </g>
</svg>
