<?xml version="1.0" standalone="no"?>
<!DOCTYPE svg PUBLIC "-//W3C//DTD SVG 1.1//EN" "http://www.w3.org/Graphics/SVG/1.1/DTD/svg11.dtd">
<svg width="100%" height="100%" viewBox="0 0 60 60" version="1.1" xmlns="http://www.w3.org/2000/svg" xmlns:xlink="http://www.w3.org/1999/xlink" xml:space="preserve" style="fill-rule:evenodd;clip-rule:evenodd;stroke-linejoin:round;stroke-miterlimit:1.41421;">
    <g transform="matrix(2.29167,0,0,2.29167,2.5,2.5)">
        <g id="Layer1">
            <g>
                <g transform="matrix(1.04348,0,0,1.09091,-1.04348,-2.18182)">
                    <ellipse cx="12.5" cy="13" rx="11.5" ry="11" style="fill:rgb(63,81,181);"/>
                </g>
                <g transform="matrix(0.935065,0,0,0.935065,0.779221,0.779221)">
                    <path d="M7,14L5,14L5,19L10,19L10,17L7,17L7,14ZM5,10L7,10L7,7L10,7L10,5L5,5L5,10ZM17,17L14,17L14,19L19,19L19,14L17,14L17,17ZM14,5L14,7L17,7L17,10L19,10L19,5L14,5Z" style="fill:white;fill-rule:nonzero;"/>
                </g>
            </g>
        </g>
    </g>
</svg>
