<?xml version="1.0" standalone="no"?>
<!DOCTYPE svg PUBLIC "-//W3C//DTD SVG 1.1//EN" "http://www.w3.org/Graphics/SVG/1.1/DTD/svg11.dtd">
<svg width="122px" height="122px" viewBox="0 0 400 400" version="1.1" xmlns="http://www.w3.org/2000/svg" xmlns:xlink="http://www.w3.org/1999/xlink" xml:space="preserve" style="fill-rule:evenodd;clip-rule:evenodd;stroke-linejoin:round;stroke-miterlimit:1.41421;">
    <g transform="matrix(1,0,0,1,-64.413,-398.267)">
        <g transform="matrix(1.17438,0,0,1.00749,-60.0641,47.0243)">
            <ellipse cx="278.5" cy="548" rx="140.5" ry="116" style="fill:rgb(8,1,0);"/>
        </g>
        <rect x="129" y="640" width="269" height="103" style="fill:rgb(8,1,0);"/>
        <g transform="matrix(1,0,0,1,-124,-7)">
            <ellipse cx="315.207" cy="607" rx="50.793" ry="40" style="fill:rgb(235,235,212);"/>
        </g>
        <g transform="matrix(1,0,0,1,0,-7)">
            <ellipse cx="315.207" cy="607" rx="50.793" ry="40" style="fill:rgb(235,235,227);"/>
        </g>
        <g transform="matrix(1,0,0,1,-364.852,-57.0215)">
            <path d="M648.259,523.027C650.548,516.716 650.21,518.052 651.251,511.968C656.522,481.175 630.485,471.692 630.485,471.692L621.617,480.533C651.989,491.939 620.352,546.351 620.352,546.351L639.414,541.134C643.396,534.532 646.269,528.515 648.259,523.027Z" style="fill:rgb(0,160,63);fill-rule:nonzero;"/>
        </g>
        <g transform="matrix(1,0,0,1,24.728,24.571)">
            <path d="M308.458,457.789C303.265,457.789 297.161,456.216 292.149,456.989C293.978,457.835 282.834,457.627 284.706,458.336C297.986,463.184 315.783,467.051 327.625,474.838C351.403,490.464 364.224,512.376 376.085,538.182C376.177,538.336 378.903,527.481 378.831,527.308C384.887,489.338 374.376,503.581 366.853,498.101C364.015,496.034 360.713,493.717 358.612,491.976C357.11,490.73 355.042,484.461 354.149,483.411C351.29,480.053 351.648,485.402 346.272,480.387C343.75,478.035 337.126,484.109 335.763,480.22C331.095,466.902 319.837,461.666 299,461.01C293.522,452.318 280.882,456.7 273.276,456.777C260.79,456.905 253.394,457.296 250.804,457L220.514,454.033C208.72,455.347 209.073,454.216 203.577,453.569C200.559,453.214 190.19,451.608 188.139,453.898C187.402,453.879 172.675,455.789 171.948,455.789C105.21,455.789 51.098,520.598 51.098,600.533C51.098,680.486 105.21,745.276 171.948,745.276C177.942,745.276 185.854,750.731 191.612,749.721C206.202,757.78 220.265,756.245 237.147,756.245C254.511,756.245 264.039,760.47 278.975,751.947C285.942,753.448 300.109,745.275 307.459,745.275C374.178,745.275 428.272,680.485 428.272,600.532C428.271,520.598 375.178,457.789 308.458,457.789ZM245.188,463.966C255.621,481.567 244.553,499.067 243.634,520.123C243.616,520.497 257.079,521.497 257.062,521.123C255.96,501.131 265.81,496.003 258.06,478.029C258.024,477.957 245.142,463.875 245.188,463.966ZM258.867,550.933C258.867,550.933 267.696,545.115 276.173,543.088C285.713,540.807 295.074,542.262 296.013,541.749C297.229,541.084 312.204,540.561 321.159,547.564C330.89,555.174 334.597,570.406 334.3,570.77C334.3,570.77 331.744,607.845 298.498,607.845C246.715,607.845 244.805,568.842 244.805,568.842L251.076,556.308L258.867,550.933ZM214.443,613.595L227.541,613.595L237.146,635.653L227.541,635.653L221.146,637.174L258.442,640.653L252.963,608.653L214.443,613.595ZM159.631,488.736C159.923,488.618 162.105,476.072 161.832,476.209C123.947,498.303 97.214,533.586 96.195,578.584C96.177,578.803 104.272,574.779 104.272,574.56C104.264,554.684 119.551,545.949 128.809,530.008C139.472,511.647 137.167,497.023 159.631,488.736ZM112.082,682.355C79.656,654.257 60.303,616.886 68.117,575.691C68.135,575.572 59.335,593.601 59.335,593.727C55.36,634.351 73.783,661.784 104.255,691.164C104.364,691.283 112.2,682.447 112.082,682.355ZM336.402,667.023L329.435,674.201L323.595,680.558C317.501,685.788 310.078,690.754 300.991,695.057L285.086,704.86L266.283,709.835C256.459,713.018 268.124,712.455 255.118,713.811L254.805,695.028L242.408,693.966C234.421,694.916 243.209,715.564 238.54,715.084C231.031,714.312 224.969,715.656 218.366,714.982L213.488,713.197L209.354,712.699C199.003,710.307 184.015,708.105 176.239,704.313L150.842,690.701L143.757,686.07C114.168,664.522 109.929,635.652 109.929,635.652C109.929,635.652 117.024,640.845 130.686,646.831L137.398,650.095L144.257,652.107C151.334,654.555 201.465,660.883 210.615,662.857L212.129,677.602L224.187,678.495C230.569,682.105 220.724,662.724 231.113,663.042L231.589,677.715L245.122,678.078C252.881,677.417 241.5,662.736 249.32,661.659L266.979,660.796L275.458,658.702C284.053,657.047 292.995,654.973 302.209,652.435L312.73,650.217L321.519,646.831L320.8,646.812C330.433,643.602 340.365,639.926 350.59,635.652C350.592,635.652 348.809,650.615 336.402,667.023ZM360.942,586.279C358.578,568.042 358.355,544.876 349.933,528.621C342.219,513.758 331.577,493.705 318.688,482.836C318.651,482.8 312.715,491.744 312.77,491.781C340.467,513.366 348.414,554.359 350.36,589.279C350.361,589.534 360.96,586.534 360.942,586.279ZM378.516,701.898C378.407,702.025 389.207,698.871 389.28,698.742C412.728,665.471 415.482,626.174 407.795,585.47C407.777,585.434 371.832,626.415 371.859,626.451C380.982,668.175 404.585,668.752 378.516,701.898ZM142.27,563.41C142.27,563.41 151.481,557.778 163.977,557.065C176.57,556.347 184.296,557.716 187.416,558.226C188.212,558.356 198.213,559.599 202.777,564.042C209.637,570.72 213.703,571.247 213.703,571.247C213.703,571.247 211.147,608.323 177.901,608.323C126.118,608.323 124.208,569.319 124.208,569.319L142.27,563.41Z" style="fill:rgb(247,148,30);fill-rule:nonzero;"/>
        </g>
    </g>
</svg>
